<?xml version="1.0" encoding="utf-8"?>
<!-- Generator: Adobe Illustrator 24.0.2, SVG Export Plug-In . SVG Version: 6.00 Build 0)  -->
<svg version="1.1" id="Capa_1" xmlns="http://www.w3.org/2000/svg" xmlns:xlink="http://www.w3.org/1999/xlink" x="0px" y="0px"
	 viewBox="0 0 32 32" style="enable-background:new 0 0 32 32;" xml:space="preserve">
<style type="text/css">
	.st0{fill:#007BFF;}
	.st1{display:none;}
	.st2{display:inline;fill:#F8F8F8;}
	.st3{fill:#F8F8F8;}
</style>
<g>
	<rect class="st0" width="32" height="32"/>
</g>
<g class="st1">
	<path class="st2" d="M3.47,4.08h9.7c0.03,0,0.04,0.03,0.03,0.05l-0.97,1.24c-0.01,0-0.02,0.01-0.03,0.01H9.46
		C9.32,5.51,9.25,5.59,9.12,5.72l-0.07,6.73c-0.01,0.01-0.02,0.02-0.03,0.03H7.29c-0.01-0.01-0.02-0.02-0.03-0.03l0.07-7.03
		C7.32,5.4,7.31,5.39,8.37,5.38H4.57c-1.09,0-1.1-0.01-1.11-0.02"/>
</g>
<g>
	<g>
		<path class="st3" d="M16.83,11.72c0.21,0,0.41,0.12,0.5,0.31l2.64,9.61c0.21,0.42,0.8,0.42,1.01,0l6.84-17.36
			c0.09-0.19,0.29-0.31,0.5-0.31H32l-9.53,23.46c-0.1,0.25-0.36,0.41-0.63,0.39l-3.49,0c-0.29,0.04-0.57-0.12-0.68-0.4l-4.72-15.69"
			/>
	</g>
	<g>
		<path class="st3" d="M22.91,7.7h-9.68c-0.44,0-0.8,0.36-0.8,0.8l0,18.63c0,0.44-0.36,0.8-0.8,0.8H9c-0.44,0-0.8-0.36-0.8-0.8
			L8.1,8.49c0-0.44-0.36-0.8-0.8-0.8H2.66c-0.23,0-0.45-0.1-0.6-0.28L0,4.08h25.54l-2.03,3.34C23.36,7.59,23.14,7.7,22.91,7.7z"/>
	</g>
</g>
</svg>
