<?xml version="1.0" encoding="utf-8"?>
<!-- Generator: Adobe Illustrator 24.0.2, SVG Export Plug-In . SVG Version: 6.00 Build 0)  -->
<svg version="1.1" id="Capa_1" xmlns="http://www.w3.org/2000/svg" xmlns:xlink="http://www.w3.org/1999/xlink" x="0px" y="0px"
	 viewBox="0 0 249.47 71.34" style="enable-background:new 0 0 249.47 71.34;" xml:space="preserve">
<style type="text/css">
	.st0{fill:#007BFF;}
	.st1{fill:#F8F8F8;}
</style>
<g>
	<path class="st0" d="M241.29,71.19H8.18C3.66,71.19,0,67.52,0,63.01V8.18C0,3.66,3.66,0,8.18,0h233.11c4.52,0,8.18,3.66,8.18,8.18
		v54.83C249.47,67.52,245.8,71.19,241.29,71.19z"/>
</g>
<g>
	<path class="st1" d="M115.55,27.33c0.47,0,0.91,0.27,1.12,0.69l5.88,21.37c0.46,0.93,1.78,0.93,2.24,0L140,10.77
		c0.21-0.43,0.64-0.7,1.12-0.7h8.18l-21.19,52.18c-0.23,0.57-0.8,0.92-1.41,0.86l-7.77-0.01c-0.65,0.08-1.27-0.28-1.52-0.88
		l-10.5-34.89"/>
</g>
<g>
	<path class="st1" d="M57.22,18.12H35.69c-0.98,0-1.78,0.8-1.78,1.78l0,41.44c0,0.98-0.8,1.78-1.78,1.78h-5.84
		c-0.98,0-1.78-0.8-1.78-1.78L24.28,19.9c0-0.98-0.8-1.78-1.78-1.78H12.19c-0.52,0-1.01-0.22-1.35-0.62l-4.58-7.43h56.81l-4.51,7.43
		C58.23,17.89,57.74,18.12,57.22,18.12z"/>
</g>
<g>
	<g>
		<path class="st1" d="M41.22,51.14c0.05,6.31,3.23,10.23,7.93,10.23c4.6,0,6.17-2.59,7.05-4.6h2.5c-1.03,3.23-3.62,6.9-9.64,6.9
			c-7.44,0-10.33-6.41-10.33-12.63c0-7,3.47-13.02,10.62-13.02c7.54,0,9.93,6.51,9.93,11.11c0,0.68,0,1.37-0.05,2.01H41.22z
			 M56.73,48.99c-0.05-4.84-2.69-8.66-7.49-8.66c-5.04,0-7.34,3.52-7.88,8.66H56.73z"/>
	</g>
</g>
<g>
	<g>
		<path class="st1" d="M70.09,63.08V27.02h2.45v36.06H70.09z"/>
		<path class="st1" d="M100.38,50.8c0,6.8-3.77,12.87-11.06,12.87c-6.61,0-10.72-5.43-10.72-12.82c0-7,3.87-12.82,10.96-12.82
			C96.07,38.03,100.38,43.12,100.38,50.8z M81.2,50.85c0,5.82,3.13,10.52,8.32,10.52c5.29,0,8.27-4.36,8.27-10.52
			c0-5.77-2.94-10.52-8.37-10.52C83.84,40.33,81.2,44.98,81.2,50.85z"/>
	</g>
</g>
<g>
	<g>
		<path class="st1" d="M141.19,51.14c0.05,6.31,3.23,10.23,7.93,10.23c4.6,0,6.17-2.59,7.05-4.6h2.5c-1.03,3.23-3.62,6.9-9.64,6.9
			c-7.44,0-10.33-6.41-10.33-12.63c0-7,3.47-13.02,10.62-13.02c7.54,0,9.93,6.51,9.93,11.11c0,0.68,0,1.37-0.05,2.01H141.19z
			 M156.7,48.99c-0.05-4.84-2.69-8.66-7.49-8.66c-5.04,0-7.34,3.52-7.88,8.66H156.7z"/>
		<path class="st1" d="M165.22,44.78c0-2.15,0-4.21-0.05-6.17h2.4c0.1,0.78,0.15,3.96,0.1,4.65c1.08-2.5,3.08-5.24,8.12-5.24
			c4.35,0,8.22,2.45,8.22,9.2v15.85h-2.45V47.62c0-4.35-1.81-7.19-6.07-7.19c-5.82,0-7.83,4.84-7.83,10.18v12.48h-2.45V44.78z"/>
		<path class="st1" d="M210.92,27.02v29.02c0,2.35,0,4.6,0.05,7.05h-2.35c-0.1-0.59-0.15-2.89-0.15-4.11
			c-1.22,2.98-3.96,4.7-8.22,4.7c-6.36,0-10.18-5.19-10.18-12.53c0-7.54,4.16-13.11,10.81-13.11c4.89,0,6.85,2.1,7.58,3.67V27.02
			H210.92z M192.67,51.04c0,6.7,3.47,10.33,7.68,10.33c6.46,0,8.22-4.45,8.22-11.11c0-6.31-1.52-9.93-7.78-9.93
			C195.95,40.33,192.67,44.19,192.67,51.04z"/>
		<path class="st1" d="M238.77,50.8c0,6.8-3.77,12.87-11.06,12.87c-6.61,0-10.72-5.43-10.72-12.82c0-7,3.87-12.82,10.96-12.82
			C234.46,38.03,238.77,43.12,238.77,50.8z M219.59,50.85c0,5.82,3.13,10.52,8.32,10.52c5.29,0,8.27-4.36,8.27-10.52
			c0-5.77-2.94-10.52-8.37-10.52C222.23,40.33,219.59,44.98,219.59,50.85z"/>
	</g>
</g>
</svg>
